<svg width="10" height="19" viewBox="0 0 10 19" fill="none" xmlns="http://www.w3.org/2000/svg">
<path d="M9.89471 5.10636L8.90668 0.271447C8.87654 0.112831 8.73838 -0.00167517 8.57847 1.85436e-05H1.41787C1.25878 0.000866704 1.12146 0.11368 1.08965 0.271447L0.104971 5.10636C-0.151242 6.35069 0.0656183 7.64671 0.711176 8.73677C1.35674 9.82587 2.38412 10.6291 3.58819 10.9862C3.60159 10.9895 3.61164 10.9997 3.62503 11.0031C4.04619 11.132 4.3334 11.5273 4.32836 11.9735V16.3298C4.32668 16.5088 4.18937 16.6564 4.01352 16.6691C3.13267 16.7505 1.64902 17.0118 1.64902 17.8125C1.64902 18.7489 3.75568 19 4.99825 19C6.24416 19 8.34748 18.7489 8.34748 17.8125C8.34748 17.0118 6.86713 16.7505 5.98298 16.6691C5.80714 16.6555 5.67067 16.5079 5.66814 16.3298V11.9735C5.6673 11.5239 5.95869 11.127 6.38488 10.9997C6.39493 10.9963 6.40498 10.9862 6.41502 10.9828C7.61824 10.6265 8.6447 9.82327 9.29032 8.73425C9.93505 7.64515 10.1509 6.34993 9.89471 5.10636ZM5.09861 3.54564C3.85604 3.11984 2.55491 2.89506 1.24373 2.88064L1.69254 0.678591H8.30718L9.02056 4.18002C7.68672 4.19444 6.36135 3.97993 5.09861 3.54564Z"/>
</svg>
