<svg width="14" height="21" viewBox="0 0 14 21" fill="none" xmlns="http://www.w3.org/2000/svg">
<path d="M6.66644 0.5C5.07424 0.5 3.63091 0.803325 2.54549 1.32331C1.46107 1.8444 0.665527 2.62328 0.665527 3.60994C0.665527 3.66771 0.66886 3.72327 0.674416 3.77882C0.948854 3.67104 1.24551 3.60994 1.55552 3.60994H11.7785C12.0885 3.60994 12.3852 3.67104 12.6585 3.77882C12.6641 3.72327 12.6674 3.66771 12.6674 3.60994C12.6674 2.62328 11.8719 1.84443 10.7874 1.32331C9.70302 0.802187 8.25855 0.5 6.66644 0.5Z" />
<path d="M1.01768 8.50009L0.0354844 16.0266C-0.272278 18.3844 1.47545 20.5 3.72749 20.5H9.60513C11.8584 20.5 13.6049 18.3845 13.2971 16.0266L12.3149 8.50009H1.01768Z" />
<path d="M1.55554 4.49893C0.701112 4.49893 0 5.20002 0 6.05447C0 6.90892 0.701084 7.60887 1.55554 7.60887H11.7785C12.633 7.60887 13.3329 6.90778 13.3329 6.05447C13.3329 5.20004 12.6319 4.49893 11.7785 4.49893H1.55554Z" />
</svg>
