<svg width="18" height="16" viewBox="0 0 18 16" fill="none" xmlns="http://www.w3.org/2000/svg">
<path d="M17.5757 2.6055C17.4657 2.4587 17.3005 2.38536 17.117 2.38536H4.60323L4.18124 0.458716C4.1262 0.183539 3.88763 0 3.61246 0H0.878482C0.548272 0 0.29126 0.256875 0.29126 0.587222C0.29126 0.917433 0.548135 1.17444 0.878482 1.17444H3.15375L5.53911 12.0735C5.59414 12.3487 5.83271 12.5323 6.10788 12.5323H15.374C15.7042 12.5323 15.9612 12.2754 15.9612 11.945C15.9612 11.6148 15.7043 11.3578 15.374 11.3578H6.58495L6.29134 10.0184H15.6675C15.9427 10.0184 16.1813 9.83486 16.2363 9.55968L17.7042 3.10096C17.7225 2.93585 17.6859 2.75229 17.5757 2.6055Z"/>
<path d="M15.5568 14.6056C15.5568 15.3757 14.9325 16 14.1624 16C13.3921 16 12.7678 15.3757 12.7678 14.6056C12.7678 13.8353 13.3922 13.211 14.1624 13.211C14.9325 13.211 15.5568 13.8353 15.5568 14.6056Z"/>
<path d="M8.74962 14.6056C8.74962 15.3757 8.12528 16 7.35516 16C6.58504 16 5.96069 15.3757 5.96069 14.6056C5.96069 13.8353 6.58504 13.211 7.35516 13.211C8.12528 13.211 8.74962 13.8353 8.74962 14.6056Z"/>
</svg>
