
<svg width="20" height="21" viewBox="0 0 20 21" fill="none" xmlns="http://www.w3.org/2000/svg">
<path d="M0.195669 13.3414H11.7249H11.7241C11.8327 13.3414 11.9198 13.4285 11.9198 13.5371V14.3871C11.9198 14.4949 11.8327 14.5828 11.7241 14.5828H0.19569C0.0870686 14.5828 0 14.4949 0 14.3871V13.5371C0 13.4285 0.0870479 13.3414 0.195669 13.3414Z"/>
<path d="M3.49827 12.6924C3.49482 12.3726 3.36293 12.0674 3.13016 11.8467C2.89826 11.626 2.58707 11.5088 2.26722 11.5225C1.9474 11.5355 1.64653 11.6777 1.43361 11.9174C1.22068 12.1562 1.11379 12.4717 1.13705 12.7906H3.4982L3.49827 12.6924Z"/>
<path d="M5.68457 12.7906V12.3535C5.67853 11.8681 5.37768 11.4363 4.92422 11.2621C4.47163 11.088 3.95871 11.2078 3.62939 11.5647C3.92163 11.9044 4.07163 12.3431 4.04835 12.7906H5.68457Z"/>
<path d="M10.7829 12.3534C10.776 11.8681 10.4742 11.4353 10.0208 11.262C9.56734 11.0879 9.05356 11.2077 8.72424 11.5646C9.01734 11.9034 9.1682 12.343 9.14667 12.7905H10.7829L10.7829 12.3534Z"/>
<path d="M17.2656 0.958633C17.2656 0.837081 17.2173 0.719847 17.1319 0.634484C17.0457 0.548278 16.9285 0.5 16.8069 0.5H9.90529C9.78288 0.5 9.66651 0.548276 9.58028 0.634484C9.49408 0.719829 9.4458 0.83707 9.4458 0.958633V2.76295H17.2657L17.2656 0.958633Z"/>
<path d="M8.59556 12.6924C8.59297 12.3725 8.46021 12.0674 8.22831 11.8475C7.9964 11.6269 7.68435 11.5096 7.3645 11.5234C7.04468 11.5363 6.74467 11.6786 6.53175 11.9174C6.31883 12.1562 6.21193 12.4717 6.23519 12.7906H8.59635L8.59556 12.6924Z"/>
<path d="M11.3112 15.7414C11.3534 15.5405 11.3853 15.3371 11.406 15.1328H0.397339C0.613718 16.6897 1.2163 18.625 3.99039 19.7904C4.25848 19.8904 4.14556 20.2628 4.16797 20.4999H7.63258C7.65499 20.2628 7.54206 19.8904 7.81017 19.7904C9.60155 19.1413 10.9274 17.6085 11.311 15.7412L11.3112 15.7414Z"/>
<path d="M9.33033 3.31393L7.84412 5.91918H15.2165L17.0147 3.31393H9.33033Z"/>
<path d="M19.0026 5.91896L17.5285 3.5397L15.8862 5.91896H19.0026Z"/>
<path d="M15.5043 6.46981C15.4069 6.47067 15.5103 20.4706 15.4733 20.4999H17.0733V9.95604C17.0759 9.80604 17.1983 9.68535 17.3483 9.68535C17.4983 9.68535 17.6207 9.80604 17.6233 9.95604V20.4999H18.7638C19.0172 20.4991 19.2224 20.2939 19.2224 20.0413V6.46979L15.5043 6.46981Z"/>
<path d="M7.6449 10.9767C7.87938 11.0069 8.10437 11.0871 8.30524 11.2129C8.62851 10.8353 9.1018 10.619 9.59921 10.6224C10.5544 10.6233 11.3285 11.3974 11.3303 12.3534V12.7905H11.7251H11.7242C12.1363 12.7914 12.4699 13.125 12.4708 13.5371V14.3871C12.4691 14.706 12.2656 14.9897 11.963 15.0931C11.738 16.8233 11.1156 18.9086 8.18283 20.2336V20.5H14.9234V6.46988H7.64501L7.6449 10.9767Z"/>
</svg>
