<svg width="17" height="9" viewBox="0 0 17 9" fill="none" xmlns="http://www.w3.org/2000/svg">
<path fill-rule="evenodd" clip-rule="evenodd" d="M1.8546 8.30134C4.8849 9.27676 10.7627 9.07398 13.8627 8.63697C16.1407 8.14315 17.8637 6.90987 16.5376 4.39173C16.1653 3.64619 14.5945 1.52838 13.6509 1.78793C12.8664 2.00382 12.4422 3.11733 12.1966 3.82967C10.5977 6.98568 8.43536 2.25378 13.1596 1.12026C12.5612 0.747041 11.8591 0.45424 11.0525 0.240982C10.3172 0.0469474 9.63383 0.155328 9.07878 0.5801C7.65502 1.66827 8.88838 4.93542 6.75241 4.66961C4.88496 4.11372 5.90327 0.589722 8.38696 0.0231827C6.9632 -0.0825756 5.68306 0.166522 4.45144 0.914698C3.73745 1.34822 3.5071 1.83506 3.93039 2.91971C4.216 3.65127 4.1871 4.21678 3.84369 4.61794C3.49434 4.90551 2.9971 4.90551 2.64774 4.61794C2.02384 4.09877 2.11989 3.13733 2.93674 1.73356C1.12708 2.92224 0.148839 4.35906 0 6.04592C0.0637504 7.16294 0.681699 7.91461 1.8547 8.30089L1.8546 8.30134Z"/>
</svg>
