<svg width="16" height="16" viewBox="0 0 16 16" xmlns="http://www.w3.org/2000/svg">
<path fill-rule="evenodd" clip-rule="evenodd" d="M0 1.45427C0 0.651097 0.645406 0 1.45427 0H5.81846C6.62163 0 7.27273 0.645406 7.27273 1.45427V5.81846C7.27273 6.62163 6.62732 7.27273 5.81846 7.27273H1.45427C0.651097 7.27273 0 6.62732 0 5.81846V1.45427ZM0 10.1815C0 9.37837 0.645406 8.72727 1.45427 8.72727H5.81846C6.62163 8.72727 7.27273 9.37268 7.27273 10.1815V14.5457C7.27273 15.3489 6.62732 16 5.81846 16H1.45427C0.651097 16 0 15.3546 0 14.5457V10.1815ZM8.72727 10.1815C8.72727 9.37837 9.37268 8.72727 10.1815 8.72727H14.5457C15.3489 8.72727 16 9.37268 16 10.1815V14.5457C16 15.3489 15.3546 16 14.5457 16H10.1815C9.37837 16 8.72727 15.3546 8.72727 14.5457V10.1815ZM8.72727 1.45427C8.72727 0.651097 9.37268 0 10.1815 0H14.5457C15.3489 0 16 0.645406 16 1.45427V5.81846C16 6.62163 15.3546 7.27273 14.5457 7.27273H10.1815C9.37837 7.27273 8.72727 6.62732 8.72727 5.81846V1.45427Z"/>
</svg>
