  <svg width="65" height="65" viewBox="0 0 65 65" fill="none" xmlns="http://www.w3.org/2000/svg">
  <path d="M32.5 0C14.5737 0 0 14.5737 0 32.5C0 50.4263 14.5737 65 32.5 65C50.4263 65 65 50.4263 65 32.5C65 14.5737 50.4263 0 32.5 0ZM32.5 61.0315C16.7632 61.0315 3.96841 48.2368 3.96841 32.5C3.96841 16.7632 16.7632 3.96841 32.5 3.96841C48.2368 3.96841 61.0316 16.7632 61.0316 32.5C61.0316 48.2368 48.2368 61.0315 32.5 61.0315Z" />
  <path d="M47.5241 22.2369L28.2978 41.4632L18.5135 31.679C17.5556 30.7211 15.982 30.7211 15.0241 31.679C14.0662 32.6369 14.0662 34.2106 15.0241 35.1685L26.5188 46.6632C26.9978 47.1421 27.6136 47.4158 28.2978 47.4158C28.982 47.4158 29.5978 47.1421 30.0767 46.6632L51.0136 25.7263C51.9715 24.7684 51.9715 23.1947 51.0136 22.2369C50.0557 21.279 48.5504 21.279 47.5241 22.2369Z" />
  </svg>
