<svg width="15" height="21" viewBox="0 0 15 21" fill="none" xmlns="http://www.w3.org/2000/svg">
<path d="M10.2451 7.49993C10.2451 9.15647 8.90165 10.4999 7.2451 10.4999C5.58856 10.4999 4.24512 9.15647 4.24512 7.49993C4.24512 5.84338 5.58856 4.49994 7.2451 4.49994C8.90165 4.49994 10.2451 5.84338 10.2451 7.49993Z" />
<path d="M13.2619 3.87281C12.8222 3.64781 12.3347 3.5822 11.8557 3.66656C11.2201 2.90344 10.3988 2.30437 9.46317 1.93031C9.30567 0.841868 8.37568 0 7.24505 0C6.11441 0 5.18444 0.841869 5.02693 1.92938C4.09132 2.30344 3.27007 2.9025 2.63443 3.66562C2.15724 3.58219 1.66788 3.64687 1.22818 3.87281C0.693797 4.14655 0.296311 4.61249 0.111632 5.18342C-0.0739933 5.75436 -0.0271164 6.36374 0.244757 6.89903C0.466007 7.33684 0.82037 7.67435 1.26382 7.8909C1.33038 8.92028 1.65569 9.87744 2.17881 10.7015C1.66507 11.6709 1.92101 12.8971 2.83413 13.5647C3.22226 13.8478 3.67974 13.9969 4.15132 13.9969C4.26944 13.9969 4.3885 13.9875 4.50851 13.9688C4.67819 13.9416 4.83944 13.8919 4.99412 13.83L4.99506 18.75C4.99506 19.9903 6.00473 21 7.24505 21C8.48536 21 9.49504 19.9903 9.49504 18.75V13.8291C9.65066 13.8909 9.81191 13.9416 9.98065 13.9688C10.0997 13.9875 10.2188 13.9969 10.3378 13.9969C10.8094 13.9969 11.2669 13.8488 11.655 13.5656C12.5653 12.9 12.8232 11.6784 12.3094 10.7024C12.8325 9.87932 13.1579 8.92119 13.2244 7.89181C13.6613 7.67994 14.0203 7.33962 14.2444 6.89714C14.5163 6.36276 14.5631 5.75246 14.3775 5.18153C14.1938 4.61247 13.7963 4.14655 13.2619 3.87281ZM7.24515 11.9999C4.76356 11.9999 2.74516 9.98146 2.74516 7.49992C2.74516 5.01837 4.7636 2.99993 7.24515 2.99993C9.72669 2.99993 11.7451 5.01837 11.7451 7.49992C11.7451 9.98146 9.72669 11.9999 7.24515 11.9999Z" />
</svg>
