<svg width="16" height="16" viewBox="0 0 16 16" fill="none" xmlns="http://www.w3.org/2000/svg">
<path d="M16 0.941176C15.9997 0.681556 15.9056 0.458027 15.7176 0.270588C15.5381 0.0904717 15.3184 0.000275735 15.0588 0C14.7992 0.000275735 14.5757 0.0904717 14.3882 0.270588L8 6.67059L1.6 0.270588C1.4204 0.0904717 1.2008 0.000275735 0.941176 0C0.681556 0.000275735 0.458027 0.0904717 0.270588 0.270588C0.0904717 0.458027 0.000275735 0.681556 0 0.941176C0.000275735 1.2008 0.0904717 1.4204 0.270588 1.6L6.67059 8L0.270588 14.3882C0.0904717 14.5757 0.000275735 14.7992 0 15.0588C0.000275735 15.3184 0.0904717 15.5381 0.270588 15.7176C0.458027 15.9056 0.681556 15.9997 0.941176 16C1.2008 15.9997 1.4204 15.9056 1.6 15.7176L8 9.32941L14.3882 15.7176C14.5757 15.9056 14.7992 15.9997 15.0588 16C15.3184 15.9997 15.5381 15.9056 15.7176 15.7176C15.9056 15.5381 15.9997 15.3184 16 15.0588C15.9997 14.7992 15.9056 14.5757 15.7176 14.3882L9.32941 8L15.7176 1.6C15.9056 1.4204 15.9997 1.2008 16 0.941176Z"/>
</svg>
