<svg  viewBox="0 0 19 19" fill="none" xmlns="http://www.w3.org/2000/svg">
<mask id="mask0_162_230" style="mask-type:luminance" maskUnits="userSpaceOnUse" x="0" y="0">
<path d="M9.5 19C14.7467 19 19 14.7467 19 9.5C19 4.25329 14.7467 0 9.5 0C4.25329 0 0 4.25329 0 9.5C0 14.7467 4.25329 19 9.5 19Z" fill="white"/>
</mask>
<g mask="url(#mask0_162_230)">
<path d="M-4.86211 -0.471529L-5.08606 18.9691L30.5247 19.3793L30.7486 -0.0613042L-4.86211 -0.471529Z" fill="white"/>
<path d="M-4.86107 -0.54465L-4.87878 0.993179L30.7021 1.40306L30.7199 -0.134769L-4.86107 -0.54465Z" fill="#CF1C31"/>
<path d="M-4.89574 2.46337L-4.91345 4.0012L30.6675 4.41108L30.6852 2.87325L-4.89574 2.46337Z" fill="#CF1C31"/>
<path d="M-4.9304 5.4714L-4.94812 7.00923L30.6328 7.41911L30.6505 5.88128L-4.9304 5.4714Z" fill="#CF1C31"/>
<path d="M-4.96495 8.47944L-4.98267 10.0173L30.5983 10.4271L30.616 8.88932L-4.96495 8.47944Z" fill="#CF1C31"/>
<path d="M-4.99962 11.4877L-5.01733 13.0255L30.5636 13.4354L30.5813 11.8976L-4.99962 11.4877Z" fill="#CF1C31"/>
<path d="M-5.03429 14.4957L-5.052 16.0335L30.5289 16.4434L30.5466 14.9056L-5.03429 14.4957Z" fill="#CF1C31"/>
<path d="M-5.06871 17.5037L-5.08643 19.0416L30.4945 19.4514L30.5122 17.9136L-5.06871 17.5037Z" fill="#CF1C31"/>
<path d="M-4.86154 -0.544346L-4.98218 9.92794L9.70435 10.0971L9.82498 -0.375162L-4.86154 -0.544346Z" fill="#3A3870"/>
<path d="M-0.0514749 1.09344L0.0810645 1.52254L0.525782 1.52775L0.162955 1.78786L0.295494 2.21672L-0.0611787 1.94856L-0.424242 2.20843L-0.281762 1.78265L-0.638672 1.51426L-0.193955 1.51946L-0.0514749 1.09344Z" fill="white"/>
<path d="M-0.0754007 3.19301L0.0571388 3.6221L0.501856 3.62707L0.139029 3.88718L0.271569 4.31628L-0.0851044 4.04789L-0.448168 4.308L-0.305688 3.88221L-0.662598 3.61382L-0.21788 3.61879L-0.0754007 3.19301Z" fill="white"/>
<path d="M-0.0995705 5.29256L0.0329689 5.72165L0.477686 5.72662L0.114859 5.98673L0.247399 6.41583L-0.109274 6.14744L-0.472338 6.40754L-0.329858 5.98153L-0.686768 5.71337L-0.24205 5.71834L-0.0995705 5.29256Z" fill="white"/>
<path d="M-0.12374 7.39191L0.00879902 7.821L0.453516 7.82621L0.0906895 8.08632L0.223229 8.51542L-0.133681 8.24702L-0.496508 8.50713L-0.354028 8.08111L-0.710938 7.81272L-0.26622 7.81793L-0.12374 7.39191Z" fill="white"/>
<path d="M2.40226 1.1216L2.5348 1.55069L2.97952 1.5559L2.61669 1.81601L2.74923 2.24511L2.39256 1.97671L2.02973 2.23682L2.17197 1.8108L1.81506 1.54241L2.26002 1.54762L2.40226 1.1216Z" fill="white"/>
<path d="M2.37821 3.22116L2.51075 3.65026L2.95547 3.65546L2.59264 3.91534L2.72518 4.34443L2.36851 4.07628L2.00545 4.33615L2.14793 3.91037L1.79102 3.64197L2.23597 3.64718L2.37821 3.22116Z" fill="white"/>
<path d="M2.35392 5.32074L2.48646 5.74984L2.93118 5.75481L2.56835 6.01491L2.70089 6.44401L2.34422 6.17562L1.98115 6.43573L2.12363 6.00994L1.76672 5.74155L2.21168 5.74652L2.35392 5.32074Z" fill="white"/>
<path d="M2.32987 7.4203L2.46241 7.84916L2.90713 7.85437L2.5443 8.11448L2.67684 8.54358L2.32017 8.27518L1.95711 8.53529L2.09959 8.10927L1.74268 7.84112L2.18763 7.84609L2.32987 7.4203Z" fill="white"/>
<path d="M4.85588 1.14999L4.98842 1.57909L5.43314 1.58406L5.07031 1.84417L5.20285 2.27327L4.84618 2.00487L4.48335 2.26498L4.62559 1.83896L4.26892 1.57081L4.71364 1.57578L4.85588 1.14999Z" fill="white"/>
<path d="M4.83183 3.24932L4.96437 3.67842L5.40909 3.68362L5.04626 3.94373L5.1788 4.37283L4.82213 4.10444L4.4593 4.36455L4.60155 3.93853L4.24487 3.67013L4.68959 3.67534L4.83183 3.24932Z" fill="white"/>
<path d="M4.80754 5.34889L4.94008 5.77799L5.3848 5.7832L5.02197 6.04307L5.15451 6.47216L4.79784 6.20401L4.43501 6.46388L4.57725 6.0381L4.22058 5.7697L4.6653 5.77491L4.80754 5.34889Z" fill="white"/>
<path d="M4.78361 7.44847L4.91615 7.87757L5.36086 7.88254L4.99804 8.14265L5.13058 8.57174L4.7739 8.30335L4.41108 8.56346L4.55332 8.13744L4.19641 7.86928L4.64136 7.87425L4.78361 7.44847Z" fill="white"/>
<path d="M7.30949 1.17815L7.44203 1.60725L7.88675 1.61222L7.52392 1.87233L7.65646 2.30143L7.29979 2.03303L6.93696 2.29314L7.07921 1.86736L6.72253 1.59897L7.16725 1.60394L7.30949 1.17815Z" fill="white"/>
<path d="M7.28545 3.27773L7.41799 3.70682L7.8627 3.71179L7.49988 3.9719L7.63242 4.401L7.27574 4.1326L6.91292 4.39271L7.05516 3.96669L6.69849 3.69854L7.1432 3.70351L7.28545 3.27773Z" fill="white"/>
<path d="M7.26115 5.37707L7.39369 5.80616L7.83841 5.81137L7.47558 6.07148L7.60812 6.50058L7.25145 6.23218L6.88862 6.49229L7.03087 6.06627L6.67419 5.79788L7.11891 5.80309L7.26115 5.37707Z" fill="white"/>
<path d="M7.23723 7.47663L7.36977 7.90573L7.81449 7.91093L7.45166 8.17081L7.5842 8.5999L7.22752 8.33151L6.8647 8.59162L7.00694 8.16584L6.65027 7.89744L7.09499 7.90265L7.23723 7.47663Z" fill="white"/>
<path d="M1.20426 0.0333633L1.3368 0.462223L1.78152 0.46743L1.41869 0.727538L1.55123 1.15663L1.19432 0.888242L0.831495 1.14835L0.973975 0.722332L0.617065 0.453939L1.06178 0.459146L1.20426 0.0333633Z" fill="white"/>
<path d="M1.18009 2.13268L1.31263 2.56178L1.75735 2.56699L1.39452 2.82686L1.52706 3.25595L1.17015 2.9878L0.807325 3.24767L0.949805 2.82189L0.592896 2.5535L1.03761 2.5587L1.18009 2.13268Z" fill="white"/>
<path d="M1.15592 4.23226L1.28846 4.66136L1.73318 4.66633L1.37035 4.92644L1.50289 5.35553L1.14598 5.08714L0.783155 5.34725L0.925635 4.92147L0.568726 4.65307L1.01344 4.65804L1.15592 4.23226Z" fill="white"/>
<path d="M1.13175 6.33181L1.26429 6.76091L1.70901 6.76588L1.34618 7.02598L1.47872 7.45508L1.12181 7.18669L0.758985 7.4468L0.901465 7.02078L0.544556 6.75262L0.989273 6.75759L1.13175 6.33181Z" fill="white"/>
<path d="M1.10758 8.43115L1.24012 8.86025L1.68484 8.86546L1.32201 9.12556L1.45455 9.55442L1.09764 9.28627L0.734816 9.54638L0.877295 9.12036L0.520386 8.85196L0.965103 8.85717L1.10758 8.43115Z" fill="white"/>
<path d="M3.64152 0.0612793L3.77406 0.490376L4.21877 0.495346L3.85595 0.755454L3.98849 1.18455L3.63158 0.916158L3.26875 1.17627L3.41123 0.750484L3.05432 0.482092L3.49904 0.487062L3.64152 0.0612793Z" fill="white"/>
<path d="M3.61735 2.16084L3.74989 2.58994L4.1946 2.59491L3.83178 2.85502L3.96432 3.28411L3.60741 3.01572L3.24458 3.27583L3.38706 2.84981L3.03015 2.58166L3.47487 2.58663L3.61735 2.16084Z" fill="white"/>
<path d="M3.5933 4.26019L3.72584 4.68929L4.17056 4.6945L3.80773 4.9546L3.94027 5.3837L3.58336 5.11531L3.22053 5.37542L3.36301 4.9494L3.0061 4.68101L3.45082 4.68621L3.5933 4.26019Z" fill="white"/>
<path d="M3.56901 6.35974L3.70155 6.78884L4.14627 6.79404L3.78344 7.05392L3.91598 7.48301L3.55907 7.21486L3.19624 7.47473L3.33872 7.04895L2.98181 6.78055L3.42653 6.78576L3.56901 6.35974Z" fill="white"/>
<path d="M3.54496 8.4593L3.6775 8.8884L4.12222 8.89337L3.75939 9.15348L3.89193 9.58258L3.53502 9.31418L3.17219 9.57429L3.31467 9.14827L2.95776 8.88012L3.40248 8.88509L3.54496 8.4593Z" fill="white"/>
<path d="M6.07877 0.0892181L6.21131 0.518315L6.65603 0.523521L6.2932 0.78363L6.42574 1.21273L6.06883 0.944334L5.70601 1.20444L5.84849 0.778423L5.49158 0.510031L5.93629 0.515238L6.07877 0.0892181Z" fill="white"/>
<path d="M6.05473 2.18878L6.18727 2.61788L6.63198 2.62308L6.26916 2.88296L6.4017 3.31205L6.04479 3.0439L5.68196 3.30377L5.82444 2.87799L5.46753 2.60959L5.91225 2.6148L6.05473 2.18878Z" fill="white"/>
<path d="M6.03056 4.28835L6.1631 4.71744L6.60781 4.72241L6.24499 4.98252L6.37753 5.41162L6.02062 5.14322L5.65779 5.40333L5.80027 4.97731L5.44336 4.70916L5.88808 4.71413L6.03056 4.28835Z" fill="white"/>
<path d="M6.00639 6.38792L6.13893 6.81678L6.58364 6.82199L6.22082 7.0821L6.35336 7.5112L5.99645 7.2428L5.63362 7.50291L5.7761 7.07689L5.41919 6.8085L5.86391 6.81371L6.00639 6.38792Z" fill="white"/>
<path d="M5.98222 8.48724L6.11476 8.91634L6.55947 8.92155L6.19665 9.18142L6.32919 9.61051L5.97228 9.34236L5.60945 9.60223L5.75193 9.17645L5.39502 8.90806L5.83974 8.91326L5.98222 8.48724Z" fill="white"/>
<path d="M8.5651 0.117859L8.69764 0.546955L9.14236 0.552162L8.77953 0.812034L8.91207 1.24113L8.5554 0.972975L8.19257 1.23285L8.33482 0.807064L7.97791 0.538672L8.42286 0.543878L8.5651 0.117859Z" fill="white"/>
<path d="M8.54105 2.21741L8.67359 2.6465L9.11831 2.65147L8.75548 2.91158L8.88802 3.34068L8.53135 3.07229L8.16852 3.33239L8.31077 2.90661L7.95386 2.63822L8.39881 2.64319L8.54105 2.21741Z" fill="white"/>
<path d="M8.51688 4.31697L8.64942 4.74607L9.09414 4.75104L8.73131 5.01115L8.86385 5.44024L8.50718 5.17185L8.14412 5.43196L8.2866 5.00594L7.92969 4.73778L8.37464 4.74275L8.51688 4.31697Z" fill="white"/>
<path d="M8.49271 6.41632L8.62525 6.84542L9.06997 6.85062L8.70714 7.11073L8.83968 7.53959L8.48277 7.27144L8.11995 7.53155L8.26243 7.10553L7.90552 6.83713L8.35047 6.84234L8.49271 6.41632Z" fill="white"/>
<path d="M8.46854 8.51588L8.60108 8.94498L9.0458 8.95019L8.68297 9.21006L8.81551 9.63916L8.4586 9.37076L8.09578 9.63087L8.23826 9.20509L7.88135 8.9367L8.3263 8.9419L8.46854 8.51588Z" fill="white"/>
</g>
</svg>
