<svg viewBox="0 0 19 19" fill="none" xmlns="http://www.w3.org/2000/svg">
<path d="M10 19C15.2467 19 19.5 14.7467 19.5 9.5C19.5 4.25329 15.2467 0 10 0C4.75329 0 0.5 4.25329 0.5 9.5C0.5 14.7467 4.75329 19 10 19Z" fill="#F0F0F0"/>
<path d="M7.27666 10.0383C8.16333 10.64 9.39833 10.3867 9.99999 9.49999C10.6017 8.61333 11.805 8.35999 12.7233 8.96166C13.5783 9.53166 13.8317 10.64 13.3567 11.495C14.4017 9.72166 13.9267 7.40999 12.1533 6.23833C10.3483 5.03499 7.90999 5.50999 6.70666 7.31499C6.67499 7.37833 6.64333 7.44166 6.61166 7.47333C6.16833 8.39166 6.45333 9.46833 7.27666 10.0383Z" fill="#ED4C5C"/>
<path d="M12.7233 8.96167C11.8366 8.36 10.6016 8.61334 9.99995 9.5C9.39828 10.3867 8.19495 10.64 7.27662 10.0383C6.42162 9.46834 6.16828 8.36 6.64328 7.505C5.56662 9.27834 6.07328 11.59 7.84662 12.7617C9.65162 13.965 12.0899 13.49 13.2933 11.685C13.3249 11.6217 13.3566 11.5583 13.3883 11.5267C13.8316 10.6083 13.5466 9.53167 12.7233 8.96167Z" fill="#428BC1"/>
<path d="M2.33664 6.745L4.52164 3.48333L4.29998 3.325L4.07831 3.19833L1.89331 6.46L2.11498 6.58667L2.33664 6.745ZM2.93831 7.15667L3.15998 7.28333L5.31331 4.02167L5.12331 3.895L4.90164 3.73667L2.71664 6.99833L2.93831 7.15667ZM5.69331 4.275L3.53998 7.53667L3.76164 7.695L3.98331 7.82167L6.13664 4.56L5.91498 4.43333L5.69331 4.275ZM15.225 12.825L15.4466 12.9833L16.46 11.4633L16.2383 11.305L16.0166 11.1783L15.0033 12.6983L15.225 12.825ZM17.6633 12.255L16.65 13.775L16.8716 13.9333L17.0933 14.06L18.1066 12.54L17.885 12.4133L17.6633 12.255ZM16.27 13.5217L17.2833 12.0017L17.0616 11.8433L16.84 11.7167L15.8266 13.2367L16.0483 13.3633L16.27 13.5217ZM15.0983 13.0467L14.8766 12.92L13.8633 14.44L14.085 14.5667L14.3066 14.725L15.32 13.205L15.0983 13.0467ZM15.89 13.585L15.7 13.4583L14.6866 14.9783L14.8766 15.105L15.0983 15.2633L16.1116 13.7433L15.89 13.585ZM16.4916 13.9967L15.4783 15.5167L15.7 15.675L15.9216 15.8017L16.935 14.2817L16.7133 14.1233L16.4916 13.9967ZM2.11498 12.4133L1.89331 12.54L4.07831 15.8017L4.29998 15.675L4.52164 15.5167L2.33664 12.255L2.11498 12.4133ZM4.10998 13.585L3.88831 13.7433L4.90164 15.2633L5.12331 15.105L5.31331 14.9783L4.29998 13.4583L4.10998 13.585ZM3.76164 11.305L3.53998 11.4633L5.69331 14.725L5.91498 14.5667L6.13664 14.44L3.98331 11.1783L3.76164 11.305ZM2.71664 12.0017L3.72998 13.5217L3.95164 13.3633L4.17331 13.2367L3.15998 11.7167L2.93831 11.8433L2.71664 12.0017ZM16.7133 4.87667L16.935 4.71833L15.9216 3.19833L15.7 3.325L15.4783 3.48333L16.4916 5.00333L16.7133 4.87667ZM15.0983 5.95333L15.32 5.795L14.3066 4.275L14.085 4.43333L13.8633 4.56L14.8766 6.08L15.0983 5.95333ZM16.65 5.225L17.6633 6.745L17.885 6.58667L18.1066 6.46L17.0933 4.94L16.8716 5.06667L16.65 5.225ZM17.0616 7.15667L17.2833 6.99833L15.0983 3.73667L14.8766 3.895L14.6866 4.02167L16.84 7.28333L17.0616 7.15667ZM16.2383 7.695L16.46 7.53667L15.4466 6.01667L15.225 6.175L15.0033 6.30167L16.0166 7.82167L16.2383 7.695Z" fill="#3E4347"/>
</svg>
