<svg width="16" height="16" viewBox="0 0 16 16" fill="none" xmlns="http://www.w3.org/2000/svg">
<path d="M8.79983 12.7997C8.79983 10.594 10.5946 8.7999 12.7996 8.7999V0.399807C12.7996 0.258804 12.7261 0.129045 12.6054 0.0570444C12.4846 -0.0157072 12.3361 -0.0187063 12.2116 0.0472943L10.8976 0.747046L9.58356 0.0472943C9.46581 -0.0149567 9.3248 -0.0157055 9.20706 0.0472943L7.89605 0.746298L6.58504 0.0472943C6.46729 -0.0157055 6.32628 -0.0157055 6.20855 0.0472943L4.89753 0.746298L3.58652 0.0472943C3.46877 -0.0157055 3.32776 -0.0157055 3.21003 0.0472943L1.89902 0.746298L0.588007 0.0472943C0.464256 -0.0194572 0.31425 -0.0149566 0.194249 0.0570444C0.0734966 0.129796 0 0.259549 0 0.399807V15.6002C0 15.7412 0.0735005 15.871 0.194249 15.943C0.314997 16.015 0.464242 16.0187 0.588007 15.9527L1.90203 15.253L3.21606 15.9527C3.33381 16.015 3.47482 16.0157 3.59255 15.9527L4.90356 15.2537L6.21457 15.9527C6.27308 15.9842 6.33833 16 6.40283 16C6.46733 16 6.53258 15.9842 6.59108 15.9527L7.90209 15.2537L9.2131 15.9527C9.33085 16.0157 9.47186 16.0157 9.5896 15.9527L10.0569 15.7037C9.2851 14.974 8.79983 13.9435 8.79983 12.8005L8.79983 12.7997ZM2.79976 3.99985H9.99984C10.2203 3.99985 10.3996 4.17835 10.3996 4.3996C10.3996 4.62084 10.2203 4.79935 9.99984 4.79935H2.79976C2.57926 4.79935 2.40001 4.62084 2.40001 4.3996C2.40001 4.17835 2.57926 3.99985 2.79976 3.99985ZM2.79976 6.39988H9.99984C10.2203 6.39988 10.3996 6.57838 10.3996 6.79962C10.3996 7.02087 10.2203 7.19937 9.99984 7.19937H2.79976C2.57926 7.19937 2.40001 7.02087 2.40001 6.79962C2.40001 6.57838 2.57926 6.39988 2.79976 6.39988ZM2.79976 8.7999H9.99984C10.2203 8.7999 10.3996 8.97841 10.3996 9.19965C10.3996 9.4209 10.2203 9.5994 9.99984 9.5994H2.79976C2.57926 9.5994 2.40001 9.4209 2.40001 9.19965C2.40001 8.97841 2.57926 8.7999 2.79976 8.7999ZM7.59981 11.9994H2.79976C2.57926 11.9994 2.40001 11.8209 2.40001 11.5997C2.40001 11.3784 2.57926 11.1999 2.79976 11.1999H7.59981C7.82031 11.1999 7.99956 11.3784 7.99956 11.5997C7.99956 11.8209 7.82031 11.9994 7.59981 11.9994Z" fill="#036CE5"/>
<path d="M12.7996 9.59961C11.0348 9.59961 9.5993 11.0351 9.5993 12.7999C9.5993 14.5647 11.0348 16.0002 12.7996 16.0002C14.5644 16.0002 15.9999 14.5647 15.9999 12.7999C15.9999 11.0351 14.5644 9.59961 12.7996 9.59961ZM14.3034 14.0907C14.2239 14.183 14.1121 14.2302 13.9996 14.2302C13.9074 14.2302 13.8151 14.1987 13.7394 14.1335L12.5393 13.1037C12.4508 13.028 12.3998 12.917 12.3998 12.8V11.3997C12.3998 11.1785 12.5791 10.9999 12.7996 10.9999C13.0201 10.9999 13.1993 11.1785 13.1993 11.3997V12.6155L14.2598 13.5252C14.4271 13.6685 14.4466 13.922 14.3026 14.0892L14.3034 14.0907Z" fill="#036CE5"/>
</svg>
