
<svg width="12" height="13" viewBox="0 0 12 13" fill="none" xmlns="http://www.w3.org/2000/svg">
<path fill-rule="evenodd" clip-rule="evenodd" d="M6.53165 1.03165C6.53165 0.737934 6.29371 0.5 6 0.5C5.70629 0.5 5.46835 0.737934 5.46835 1.03165V5.96835H0.531646C0.237934 5.96835 0 6.20629 0 6.5C0 6.79371 0.237934 7.03165 0.531646 7.03165H5.46835V11.9684C5.46835 12.2621 5.70629 12.5 6 12.5C6.29371 12.5 6.53165 12.2621 6.53165 11.9684V7.03165H11.4684C11.7621 7.03165 12 6.79371 12 6.5C12 6.20629 11.7621 5.96835 11.4684 5.96835H6.53165V1.03165Z"/>
</svg>
