<svg width="20" height="20" viewBox="0 0 20 20" fill="none" xmlns="http://www.w3.org/2000/svg">
<g clip-path="url(#clip0_6_19745)">
<path d="M8.29716 17.4969C10.5347 17.4969 12.5652 16.5911 14.0616 15.1228L17.9366 18.3737C18.0818 18.4978 18.2585 18.5557 18.4331 18.5557C18.6595 18.5557 18.8798 18.4574 19.0361 18.2672C19.3092 17.928 19.2625 17.4276 18.9295 17.1504L15.0808 13.9202C16.0442 12.5367 16.6137 10.8472 16.6137 9.0263C16.6137 4.35474 12.8837 0.555664 8.29709 0.555664C3.71048 0.555664 -0.0195312 4.35474 -0.0195312 9.0263C-0.0195312 13.6979 3.71054 17.4969 8.29716 17.4969ZM8.29716 2.14388C12.024 2.14388 15.0544 5.23037 15.0544 9.02627C15.0544 12.8222 12.024 15.9087 8.29716 15.9087C4.57027 15.9087 1.5399 12.8222 1.5399 9.02627C1.5399 5.23037 4.57027 2.14388 8.29716 2.14388Z" fill="#181515"/>
</g>
<defs>
<clipPath id="clip0_6_19745">
<rect width="20" height="20" fill="white"/>
</clipPath>
</defs>
</svg>
