<svg width="15" height="15" viewBox="0 0 15 15" fill="none" xmlns="http://www.w3.org/2000/svg">
<path d="M11.8685 9.42518C10.9648 9.42518 10.1278 9.81962 9.57522 10.4821L5.7747 8.49451C6.00879 7.89484 6.00879 7.24835 5.7747 6.64871L9.57455 4.66045C10.2108 5.41789 11.2152 5.82772 12.2359 5.73344C13.2573 5.63853 14.161 5.07092 14.6462 4.21856C15.1314 3.36684 15.115 2.34137 14.6128 1.48892C14.0943 0.637197 13.1905 0.0849894 12.1528 0.0061026C11.1314 -0.0567607 10.144 0.369108 9.5248 1.14195C8.90555 1.91478 8.73814 2.92494 9.08929 3.84019L5.28943 5.82782C4.77022 5.21275 4.01691 4.83372 3.19691 4.78626C2.37691 4.7234 1.55623 4.99149 0.954057 5.52767C0.351142 6.04845 0 6.78986 0 7.57873C0 8.36759 0.351812 9.0936 0.954057 9.62978C1.55697 10.1506 2.37697 10.4186 3.19691 10.3712C4.01691 10.3083 4.77022 9.9293 5.28943 9.32963L9.08929 11.287C8.80484 12.0284 8.88854 12.8647 9.29004 13.5586C9.69153 14.2525 10.3952 14.7419 11.2152 14.9311C12.0352 15.1049 12.8892 14.9471 13.5759 14.4892C14.2625 14.0319 14.7143 13.3219 14.798 12.5331C14.8987 11.7443 14.6306 10.9554 14.0617 10.3718C13.5085 9.75673 12.7055 9.42518 11.8685 9.42518Z" fill="#9C9C9C"/>
</svg>
