<svg width="15" height="18" viewBox="0 0 15 18" fill="none" xmlns="http://www.w3.org/2000/svg">
<path d="M5.42091 0.111023C5.17873 0.111023 4.9834 0.306338 4.9834 0.548538V2.09978H9.78545V0.548538C9.78545 0.306358 9.59013 0.111023 9.34793 0.111023H5.42091Z"/>
<path d="M13.1141 17.438L13.9319 7.27567H0.853516L1.67123 17.438C1.6912 17.6915 1.90648 17.8894 2.15995 17.8894H12.6218C12.8753 17.8894 13.0906 17.6915 13.1105 17.438H13.1141ZM4.79206 15.0222C4.79206 15.3199 4.54988 15.5604 4.25386 15.5604C3.95872 15.5604 3.71565 15.3182 3.71565 15.0222V10.0335C3.71565 9.73573 3.95783 9.49527 4.25386 9.49527C4.549 9.49527 4.79206 9.73484 4.79206 10.0335V15.0222ZM7.93187 15.0222C7.93187 15.3199 7.68969 15.5604 7.39367 15.5604C7.09853 15.5604 6.85546 15.3182 6.85546 15.0222V10.0335C6.85546 9.73573 7.09764 9.49527 7.39367 9.49527C7.6888 9.49527 7.93187 9.73484 7.93187 10.0335V15.0222ZM11.0717 15.0222C11.0717 15.3199 10.8295 15.5604 10.5335 15.5604C10.2383 15.5604 9.99527 15.3182 9.99527 15.0222V10.0335C9.99527 9.73573 10.2375 9.49527 10.5335 9.49527C10.8286 9.49527 11.0717 9.73484 11.0717 10.0335V15.0222Z"/>
<path d="M14.0792 6.1989C14.1036 6.1989 14.1261 6.1989 14.1504 6.19456C14.173 6.19196 14.1973 6.18762 14.219 6.18328C14.3544 6.15637 14.4742 6.08953 14.5697 5.99665C14.6253 5.94109 14.6721 5.87685 14.7077 5.80307C14.752 5.71192 14.7789 5.60775 14.7789 5.49838V3.87596C14.7789 3.81346 14.7702 3.75356 14.7563 3.69801C14.752 3.68238 14.7476 3.66936 14.7407 3.65374C14.7051 3.5513 14.6496 3.45842 14.574 3.38289C14.4942 3.30303 14.3961 3.24313 14.2876 3.20928C14.265 3.20233 14.2433 3.19626 14.2207 3.19192C14.1765 3.18323 14.127 3.17889 14.081 3.17889H0.697057C0.648446 3.17889 0.60157 3.18323 0.557298 3.19192C0.488722 3.20494 0.423617 3.23011 0.366323 3.2631C0.306427 3.29608 0.252607 3.33601 0.203995 3.38289C0.161459 3.42542 0.124132 3.47404 0.0928828 3.52699C0.0703137 3.56692 0.0529513 3.60945 0.0373268 3.65372C0.0329865 3.66935 0.0260417 3.68237 0.0217012 3.698C0.0217012 3.70494 0.0190975 3.71362 0.0173613 3.72056C0.0060765 3.77178 0 3.823 0 3.87855V5.50097C0 5.69455 0.079863 5.8725 0.209204 5.99837C0.327261 6.11383 0.486984 6.18935 0.664942 6.19803H0.700533H14.0827L14.0792 6.1989Z"/>
</svg>
